<svg width="0" height="0" class="hidden">
  <symbol version="1.0" xmlns="http://www.w3.org/2000/svg" preserveAspectRatio="xMidYMid meet" viewBox="0 0 64.000000 64.000000" id="finish">
    <g transform="translate(0.000000,64.000000) scale(0.100000,-0.100000)" fill="#000000" stroke="none">
      <path d="M6 614 c-4 -10 1 -25 11 -36 10 -11 77 -142 148 -291 118 -246 155
-308 155 -263 0 9 -27 70 -60 136 l-60 120 32 20 c54 33 114 36 183 11 33 -13
74 -26 92 -31 36 -9 109 2 125 18 8 8 -6 48 -52 144 -34 73 -64 135 -67 138
-2 2 -35 3 -73 2 -54 -3 -80 2 -122 20 -71 31 -157 31 -215 1 l-42 -22 -3 22
c-4 27 -43 36 -52 11z m157 -58 l16 -35 -36 -21 c-19 -11 -37 -20 -38 -18 -1
2 -10 18 -19 35 l-17 33 33 20 c18 11 36 20 39 20 3 0 13 -15 22 -34z m140 19
c33 -13 65 -50 54 -61 -2 -2 -18 1 -36 7 -18 6 -34 9 -37 7 -2 -3 3 -22 11
-43 9 -20 15 -38 13 -40 -2 -1 -22 -5 -44 -8 -41 -5 -42 -4 -60 35 -20 45 -12
58 40 58 21 0 27 4 22 15 -3 8 -9 22 -12 30 -8 19 4 19 49 0z m202 -45 c21
-41 19 -50 -15 -50 -23 0 -33 7 -45 30 -12 24 -13 31 -3 34 11 4 38 13 45 15
1 1 9 -12 18 -29z m-58 -55 c7 -2 21 -22 33 -45 22 -44 16 -49 -34 -30 -30 11
-33 2 -12 -39 l15 -27 -49 15 c-41 12 -51 20 -63 53 -17 42 -12 45 38 24 38
-16 41 -13 20 24 -8 14 -14 28 -15 33 0 6 31 3 67 -8z m-204 -90 l17 -35 -30
-15 c-40 -21 -44 -20 -63 19 -15 33 -15 35 6 50 34 24 52 19 70 -19z m342 -25
c21 -40 19 -47 -14 -52 -25 -4 -31 1 -45 29 -22 46 -20 53 14 53 23 0 33 -7
45 -30z"></path>
    </g>
  </symbol>
</svg>