<svg width="0" height="0" class="hidden">
  <symbol version="1.0" xmlns="http://www.w3.org/2000/svg" preserveAspectRatio="xMidYMid meet" viewBox="0 0 128.000000 128.000000" id="car1">
    <g transform="translate(0.000000,128.000000) scale(0.100000,-0.100000)" fill="#000000" stroke="none">
      <path d="M480 825 c-57 -15 -271 -48 -345 -53 l-90 -7 -24 -70 c-16 -46 -22
-80 -18 -97 8 -32 62 -88 85 -88 9 0 29 -12 45 -27 41 -40 113 -40 154 0 l29
27 283 0 283 0 35 -30 c49 -43 103 -40 158 11 16 14 40 19 110 21 l90 3 3 36
c2 24 -4 43 -18 61 -25 33 -125 81 -211 103 -35 9 -116 37 -179 62 -113 45
-117 46 -245 49 -71 2 -137 1 -145 -1z m60 -30 c0 -2 -5 -16 -12 -30 -10 -22
-17 -26 -42 -21 -17 3 -60 8 -96 12 -50 6 -59 9 -42 15 40 15 192 34 192 24z
m299 -36 c83 -33 83 -33 51 -42 -24 -6 -35 -4 -43 6 -7 8 -22 18 -35 22 -19 5
-25 2 -29 -15 -5 -19 -11 -21 -47 -16 -23 3 -74 8 -113 12 -40 4 -73 11 -73
16 0 5 8 20 17 34 16 26 19 26 102 22 67 -4 105 -13 170 -39z m-561 -135 c31
-36 29 -79 -7 -115 -69 -68 -177 3 -140 93 25 60 103 72 147 22z m766 1 c55
-51 19 -145 -56 -145 -37 1 -59 14 -76 47 -19 35 -14 63 17 94 37 37 78 38
115 4z"></path>
      <path d="M165 596 c-31 -47 23 -104 73 -77 29 16 37 48 18 76 -22 34 -70 34
-91 1z"></path>
      <path d="M947 602 c-22 -24 -21 -55 1 -75 37 -34 92 -11 92 38 0 50 -60 73
-93 37z"></path>
    </g>
  </symbol>
</svg>